<svg width="40" height="40" viewBox="0 0 40 40" fill="none" xmlns="http://www.w3.org/2000/svg">
<path d="M20.0002 3.33334C10.8002 3.33334 3.3335 10.8 3.3335 20C3.3335 29.2 10.8002 36.6667 20.0002 36.6667H28.3335V33.3333H20.0002C12.7668 33.3333 6.66683 27.2333 6.66683 20C6.66683 12.7667 12.7668 6.66668 20.0002 6.66668C27.2335 6.66668 33.3335 12.7667 33.3335 20V22.3833C33.3335 23.7 32.1502 25 30.8335 25C29.5168 25 28.3335 23.7 28.3335 22.3833V20C28.3335 15.4 24.6002 11.6667 20.0002 11.6667C15.4002 11.6667 11.6668 15.4 11.6668 20C11.6668 24.6 15.4002 28.3333 20.0002 28.3333C22.3002 28.3333 24.4002 27.4 25.9002 25.8833C26.9835 27.3667 28.8502 28.3333 30.8335 28.3333C34.1168 28.3333 36.6668 25.6667 36.6668 22.3833V20C36.6668 10.8 29.2002 3.33334 20.0002 3.33334ZM20.0002 25C17.2335 25 15.0002 22.7667 15.0002 20C15.0002 17.2333 17.2335 15 20.0002 15C22.7668 15 25.0002 17.2333 25.0002 20C25.0002 22.7667 22.7668 25 20.0002 25Z" fill="#F9F2FA"/>
</svg>
