<svg width="94" height="48" viewBox="0 0 94 48" fill="none" xmlns="http://www.w3.org/2000/svg">
<path d="M11.2588 1.27C8.15879 1.27 6.60879 4.26 6.60879 10.24V12.61C6.60879 15.45 7.01879 17.68 7.83879 19.3C8.65879 20.9 9.86879 21.7 11.4688 21.7C13.6688 21.7 15.6888 19.56 17.5288 15.28H18.0688L17.8588 21.97H17.5288C17.4088 21.75 17.2988 21.6 17.1988 21.52C17.0988 21.42 16.9488 21.37 16.7488 21.37C16.5688 21.37 15.8488 21.53 14.5888 21.85C13.3288 22.15 12.0488 22.3 10.7488 22.3C7.48879 22.3 4.95879 21.42 3.15879 19.66C1.37879 17.9 0.488789 15.26 0.488789 11.74C0.488789 8.2 1.41879 5.47 3.27879 3.55C5.15879 1.63 7.67879 0.669999 10.8388 0.669999C12.0588 0.669999 13.2488 0.829999 14.4088 1.15C15.5888 1.45 16.2788 1.6 16.4788 1.6C16.6788 1.6 16.8288 1.56 16.9288 1.48C17.0288 1.38 17.1388 1.22 17.2588 0.999999H17.5888L17.8288 7.51H17.2888C16.3888 5.49 15.4588 3.95 14.4988 2.89C13.5588 1.81 12.4788 1.27 11.2588 1.27ZM32.3457 21.43L30.1557 14.95H24.2157L21.9057 21.43H24.1557V22H19.5657V21.43H20.9757L28.6257 0.819999H31.0857L38.6457 21.43H40.0257V22H30.2157V21.43H32.3457ZM27.3057 6.43L24.4857 14.29H29.9157L27.3057 6.43ZM49.6729 21.67C50.6729 21.67 51.5529 21.4 52.3129 20.86C53.0929 20.32 53.4829 19.51 53.4829 18.43C53.4829 17.33 53.0629 16.49 52.2229 15.91C51.4029 15.33 50.2229 14.83 48.6829 14.41C47.1629 13.97 46.0529 13.59 45.3529 13.27C44.6729 12.95 44.0229 12.53 43.4029 12.01C42.1629 10.97 41.5429 9.36 41.5429 7.18C41.5429 5.4 42.1729 3.87 43.4329 2.59C44.7129 1.31 46.4529 0.669999 48.6529 0.669999C49.7129 0.669999 50.8129 0.829999 51.9529 1.15C53.1129 1.45 53.8329 1.6 54.1129 1.6C54.3929 1.6 54.6429 1.4 54.8629 0.999999H55.1929L55.4029 7.06H54.9229C53.9629 5.32 52.9529 3.93 51.8929 2.89C50.8529 1.83 49.7129 1.3 48.4729 1.3C47.2529 1.3 46.3029 1.59 45.6229 2.17C44.9429 2.73 44.6029 3.49 44.6029 4.45C44.6029 5.39 45.0029 6.12 45.8029 6.64C46.6229 7.14 47.6229 7.55 48.8029 7.87C49.9829 8.19 50.7529 8.41 51.1129 8.53C51.4929 8.65 51.9529 8.82 52.4929 9.04C53.0529 9.24 53.5029 9.46 53.8429 9.7C54.2029 9.92 54.5729 10.21 54.9529 10.57C55.3529 10.91 55.6629 11.29 55.8829 11.71C56.4229 12.67 56.6929 13.81 56.6929 15.13C56.6929 17.29 56.0129 19.03 54.6529 20.35C53.3129 21.65 51.5429 22.3 49.3429 22.3C48.2029 22.3 46.8929 22.15 45.4129 21.85C43.9529 21.55 43.1429 21.4 42.9829 21.4C42.7029 21.4 42.4329 21.7 42.1729 22.3H41.7529L41.4529 15.16H41.9629C42.8429 16.9 43.9629 18.42 45.3229 19.72C46.7029 21.02 48.1529 21.67 49.6729 21.67ZM58.5411 0.999999H74.1411L74.4411 6.94H73.9011C73.0611 4.92 72.1811 3.54 71.2611 2.8C70.3411 2.04 68.9911 1.66 67.2111 1.66H66.1611V10.93H67.1811C68.1211 10.93 68.9111 10.58 69.5511 9.88C70.1911 9.16 70.6411 8.2 70.9011 7H71.3511V15.88H70.8411C70.4811 14.38 69.9911 13.31 69.3711 12.67C68.7711 12.03 67.9411 11.71 66.8811 11.71H66.1611V21.34H67.3011C69.1411 21.34 70.7011 20.79 71.9811 19.69C73.2811 18.59 74.1711 17.18 74.6511 15.46H75.2511L75.0111 22H58.5411V21.34H60.3111V1.66H58.5411V0.999999ZM86.4325 10.87L90.6925 1.48H87.6625V0.999999H93.5725V1.48H91.5925L87.0625 11.5V21.43H88.8925V22H79.3825V21.43H81.2125V12.07L76.1125 1.48H74.7025V0.999999H84.3025V1.48H82.3525L86.4325 10.87ZM5.22082 27H14.5808V27.57H12.8408V36.87H18.8108V27.57H17.0408V27H26.4308V27.57H24.6608V47.43H26.4308V48H17.0408V47.43H18.8108V37.65H12.8408V47.43H14.5808V48H5.22082V47.43H6.99082V27.57H5.22082V27ZM40.0215 47.43L37.8315 40.95H31.8915L29.5815 47.43H31.8315V48H27.2415V47.43H28.6515L36.3015 26.82H38.7615L46.3215 47.43H47.7015V48H37.8915V47.43H40.0215ZM34.9815 32.43L32.1615 40.29H37.5915L34.9815 32.43ZM48.5216 27H59.3216V27.66H56.1416V47.34H57.2216C58.9216 47.34 60.2716 46.82 61.2716 45.78C62.2916 44.74 63.3216 43.14 64.3616 40.98H64.9916L64.4216 48H48.5216V47.34H50.2916V27.66H48.5216V27ZM87.1827 37.14C87.1827 41.26 86.0227 44.13 83.7027 45.75C81.5627 47.25 78.6227 48 74.8827 48H66.3927V47.43H68.3727V27.57H66.3927V27H75.6627C79.5027 27 82.3827 27.79 84.3027 29.37C86.2227 30.93 87.1827 33.52 87.1827 37.14ZM74.2227 47.43H75.3627C77.3827 47.43 78.8227 46.72 79.6827 45.3C80.5627 43.86 81.0027 41.46 81.0027 38.1V36.36C81.0027 31.86 80.1427 29.15 78.4227 28.23C77.6027 27.79 76.4427 27.57 74.9427 27.57H74.2227V47.43Z" fill="#F9F2FA"/>
</svg>
